<svg fill="none" height="12" viewBox="0 0 9 12" width="9" xmlns="http://www.w3.org/2000/svg"><path d="m8.7408 6.49448c.07994-.05504.1453-.12869.19045-.21461.04516-.08592.06875-.18153.06875-.27859s-.02359-.19267-.06875-.27858c-.04515-.08592-.11051-.15957-.19045-.21462l-7.799464-5.399998c-.08996-.062505-.195328-.09915847-.304656-.1059801s-.218435.0164509-.315466.0672894c-.097031.0508377-.178275.1272967-.234905.2210697-.0566302.093772-.0864808.201274-.08630826.310821v10.800018c.00045142.1093.03068586.2164.08745176.3098.0567655.0934.1379155.1695.2347215.2202.096807.0508.205607.0741.314702.0676.109094-.0065.214354-.0426.30446-.1044z" fill="#fff"/></svg>