<svg fill="none" height="12" viewBox="0 0 9 12" width="9" xmlns="http://www.w3.org/2000/svg"><path d="m.259199 6.49409c-.0799-.0551-.145298-.1288-.1904982-.2147-.0451-.0859-.0687008-.1815-.0687008-.2786s.0236008-.1927.0687008-.2786c.0452002-.0859.1105982-.1596.1904982-.2146l7.799501-5.400404c.0899-.0625998.1953-.09919972.3046-.10599972.1093-.0069.2185.01639982.3155.06729982.097.0507999.1783.1273009.2349.2210009.0566.0938.0865.2013.0863.3109v10.800813c-.0005.1093-.0307.2165-.0875.3099-.0567.0934-.1379.1695-.2347.2202-.0968.0508-.2056.0741-.3147.0676s-.2143-.0426-.3044-.1044z" fill="#7a11ff" fill-opacity=".5"/></svg>