<svg fill="none" height="36" viewBox="0 0 167 36" width="167" xmlns="http://www.w3.org/2000/svg"><path d="m157 0h-147c-5.52285 0-10 4.47715-10 10v16c0 5.5228 4.47715 10 10 10h147c5.523 0 10-4.4772 10-10v-16c0-5.52285-4.477-10-10-10z" fill="#7a11ff"/><g fill="#fff"><path d="m27.25 12.0846-4.824 11.916h-1.548l-4.824-11.916h1.476l4.122 10.386 4.122-10.386zm1.2227 2.916h1.35v9h-1.35zm1.404-3.276v1.764h-1.458v-1.764zm6.3014 11.196c1.212 0 2.082-.504 2.61-1.512h1.476c-.312.816-.81 1.476-1.494 1.98-.672.504-1.542.756-2.61.756-1.356 0-2.46-.45-3.312-1.35-.828-.876-1.242-1.974-1.242-3.294 0-1.332.396-2.43 1.188-3.294.84-.9 1.932-1.35 3.276-1.35s2.436.45 3.276 1.35c.792.864 1.188 1.962 1.188 3.294v.54h-7.542c.096.828.426 1.512.99 2.052.576.552 1.308.828 2.196.828zm-.108-6.84c-.828 0-1.524.258-2.088.774-.528.492-.852 1.134-.972 1.926h6.12c-.12-.792-.444-1.434-.972-1.926-.564-.516-1.26-.774-2.088-.774zm11.7296.738-2.25 7.182h-1.548l-2.826-9h1.44l2.16 7.326 2.286-7.326h1.476l2.286 7.326 2.16-7.326h1.44l-2.826 9h-1.548zm17.3843 6.012c.852 0 1.596-.216 2.232-.648.648-.432 1.128-1.014 1.44-1.746h1.422c-.396 1.128-1.05 2.016-1.962 2.664-.972.696-2.118 1.044-3.438 1.044-1.74 0-3.15-.594-4.23-1.782-1.02-1.14-1.53-2.58-1.53-4.32s.51-3.18 1.53-4.32c1.08-1.188 2.49-1.782 4.23-1.782 1.32 0 2.466.348 3.438 1.044.912.648 1.566 1.536 1.962 2.664h-1.422c-.312-.732-.792-1.314-1.44-1.746-.636-.432-1.38-.648-2.232-.648s-1.56.126-2.124.378c-.564.24-1.038.576-1.422 1.008-.78.876-1.17 2.01-1.17 3.402s.39 2.526 1.17 3.402c.816.924 1.998 1.386 3.546 1.386zm10.7358-7.974c1.344 0 2.436.45 3.276 1.35.792.864 1.188 1.962 1.188 3.294s-.396 2.43-1.188 3.294c-.84.9-1.932 1.35-3.276 1.35s-2.436-.45-3.276-1.35c-.792-.864-1.188-1.962-1.188-3.294s.396-2.43 1.188-3.294c.84-.9 1.932-1.35 3.276-1.35zm0 8.064c.972 0 1.74-.336 2.304-1.008.54-.636.81-1.44.81-2.412s-.27-1.776-.81-2.412c-.564-.672-1.332-1.008-2.304-1.008s-1.74.336-2.304 1.008c-.54.636-.81 1.44-.81 2.412s.27 1.776.81 2.412c.564.672 1.332 1.008 2.304 1.008zm12.7521 1.08v-1.404c-.324.432-.72.798-1.188 1.098s-1.002.45-1.602.45-1.116-.084-1.548-.252-.81-.42-1.134-.756c-.744-.732-1.116-1.698-1.116-2.898v-5.238h1.35v5.202c0 .828.234 1.488.702 1.98s1.074.738 1.818.738c.756 0 1.398-.252 1.926-.756.528-.516.792-1.176.792-1.98v-5.184h1.35v9zm8.4493-9.144v1.35h-.162c-.972 0-1.764.39-2.376 1.17-.576.744-.864 1.632-.864 2.664v3.96h-1.35v-9h1.35v2.214c.288-.936.912-1.626 1.872-2.07.396-.192.876-.288 1.44-.288zm6.7448 2.556c-.12-.936-.876-1.404-2.268-1.404-1.38 0-2.0697.432-2.0697 1.296 0 .36.144.636.432.828.2997.18.6717.33 1.1157.45s.924.234 1.44.342c.528.096 1.014.24 1.458.432.444.18.81.432 1.098.756.3.324.45.768.45 1.332 0 .876-.33 1.548-.99 2.016-.66.456-1.554.684-2.682.684-1.2 0-2.1537-.3-2.8617-.9-.648-.528-.996-1.218-1.044-2.07h1.404c.084.828.552 1.386 1.4037 1.674.312.096.618.144.918.144.312 0 .6-.018.864-.054s.522-.102.774-.198c.576-.228.864-.618.864-1.17 0-.372-.15-.654-.45-.846-.288-.204-.654-.366-1.098-.486-.444-.132-.93-.246-1.458-.342-.516-.108-.996-.252-1.4397-.432-.444-.18-.816-.426-1.116-.738-.288-.312-.432-.744-.432-1.296 0-.816.294-1.446.882-1.89.6-.456 1.4817-.684 2.6457-.684 1.104 0 1.974.264 2.61.792.528.444.834 1.032.918 1.764zm7.406 5.508c1.212 0 2.082-.504 2.61-1.512h1.476c-.312.816-.81 1.476-1.494 1.98-.672.504-1.542.756-2.61.756-1.356 0-2.46-.45-3.312-1.35-.828-.876-1.242-1.974-1.242-3.294 0-1.332.396-2.43 1.188-3.294.84-.9 1.932-1.35 3.276-1.35s2.436.45 3.276 1.35c.792.864 1.188 1.962 1.188 3.294v.54h-7.542c.096.828.426 1.512.99 2.052.576.552 1.308.828 2.196.828zm-.108-6.84c-.828 0-1.524.258-2.088.774-.528.492-.852 1.134-.972 1.926h6.12c-.12-.792-.444-1.434-.972-1.926-.564-.516-1.26-.774-2.088-.774zm11.405 1.332c-.12-.936-.876-1.404-2.268-1.404-1.38 0-2.07.432-2.07 1.296 0 .36.144.636.432.828.3.18.672.33 1.116.45s.924.234 1.44.342c.528.096 1.014.24 1.458.432.444.18.81.432 1.098.756.3.324.45.768.45 1.332 0 .876-.33 1.548-.99 2.016-.66.456-1.554.684-2.682.684-1.2 0-2.154-.3-2.862-.9-.648-.528-.996-1.218-1.044-2.07h1.404c.084.828.552 1.386 1.404 1.674.312.096.618.144.918.144.312 0 .6-.018.864-.054s.522-.102.774-.198c.576-.228.864-.618.864-1.17 0-.372-.15-.654-.45-.846-.288-.204-.654-.366-1.098-.486-.444-.132-.93-.246-1.458-.342-.516-.108-.996-.252-1.44-.432s-.816-.426-1.116-.738c-.288-.312-.432-.744-.432-1.296 0-.816.294-1.446.882-1.89.6-.456 1.482-.684 2.646-.684 1.104 0 1.974.264 2.61.792.528.444.834 1.032.918 1.764z"/><path d="m150.741 18.4936c.08-.0551.145-.1287.19-.2146s.069-.1816.069-.2786c0-.0971-.024-.1927-.069-.2786s-.11-.1596-.19-.2146l-7.8-5.4c-.09-.0625-.195-.0992-.304-.106-.11-.0068-.219.0165-.316.0673s-.178.1273-.235.2211c-.056.0937-.086.2012-.086.3108v10.8c0 .1093.031.2164.087.3098.057.0934.138.1695.235.2202.097.0508.206.0741.315.0676s.214-.0426.304-.1044z"/></g></svg>