<svg fill="none" height="20" viewBox="0 0 30 20" width="30" xmlns="http://www.w3.org/2000/svg"><g fill="#777"><path d="m27.2327 0h-24.46538c-.21151 0-.41758.067067-.58858.19156l-1.186789.86404c-.512064.3728-.552936 1.1217-.084483 1.54802l1.248242 1.13597c.18412.16755.42411.26041.67306.26041h24.34243c.249 0 .489-.09286.6731-.26041l1.2482-1.13597c.4685-.42632.4276-1.17522-.0845-1.54802l-1.1867-.86404c-.171-.1244929-.3771-.19156-.5886-.19156z"/><path d="m27.2327 8h-24.46538c-.21151 0-.41758.06707-.58858.19156l-1.186789.86404c-.512064.3728-.552936 1.1217-.084483 1.548l1.248242 1.136c.18412.1675.42411.2604.67306.2604h24.34243c.249 0 .489-.0929.6731-.2604l1.2482-1.136c.4685-.4263.4276-1.1752-.0845-1.548l-1.1867-.86404c-.171-.12449-.3771-.19156-.5886-.19156z"/><path d="m27.2327 16h-24.46538c-.21151 0-.41758.0671-.58858.1916l-1.186789.864c-.512064.3728-.552936 1.1217-.084483 1.548l1.248242 1.136c.18412.1675.42411.2604.67306.2604h24.34243c.249 0 .489-.0929.6731-.2604l1.2482-1.136c.4685-.4263.4276-1.1752-.0845-1.548l-1.1867-.864c-.171-.1245-.3771-.1916-.5886-.1916z"/></g></svg>