<svg fill="none" height="38" viewBox="0 0 43 38" width="43" xmlns="http://www.w3.org/2000/svg"><path d="m39.4167 33.25h-35.83337c-.65993 0-3.58333 1.7189-3.58333 2.375s2.9234 2.375 3.58333 2.375h35.83337c.6599 0 3.5833-1.7189 3.5833-2.375s-2.9234-2.375-3.5833-2.375zm-22.6945-4.75-4.7778-2.375 4.7778-2.375 2.3889-4.75 2.3889 4.75 4.7778 2.375-4.7778 2.375-1.1944 2.375h15.5277l-6.4507-14.9647c-.4613-1.0693-.5115-2.2697-.1411-3.3733l4.2029-12.537-14.0033 7.95551c-1.7666 1.00357-3.1647 2.54159-3.991 4.38999l-8.28343 18.5295h10.75003zm4.7778-16.625 1.1944-2.375 1.1945 2.375 2.3889 1.1875-2.3889 1.1875-1.1945 2.375-1.1944-2.375-2.3889-1.1875z" fill="#7a11ff" fill-opacity=".5"/></svg>