<svg fill="none" height="403" viewBox="0 0 684 403" width="684" xmlns="http://www.w3.org/2000/svg"><path d="m674 0h-664c-5.52285 0-10 4.47715-10 10v383c0 5.523 4.47715 10 10 10h664c5.523 0 10-4.477 10-10v-383c0-5.52285-4.477-10-10-10z" fill="#c4c4c4"/><path d="m398.667 275h-114.334c-8.983 0-16.333-7.35-16.333-16.333v-114.334c0-8.983 7.35-16.333 16.333-16.333h114.334c8.983 0 16.333 7.35 16.333 16.333v114.334c0 8.983-7.35 16.333-16.333 16.333z" fill="#7a11ff"/><path d="m370.083 201.501-44.916-32.667v65.333z" fill="#fff"/></svg>